# xmcd
#
# Track frame offsets: 
#        150
#        11537
#        22130
#        31239
#        41956
#        53928
#        64737
#        74363
#        85857
#        97335
#        107689
#        118247
#        127696
#        139951
#        152666
#        164763
#        174658
#        187896
#        198891
#        209935
#        221803
#        232956
#        244527
#        253567
#        263697
#        272792
#        283822
#
# Disc length: 3963 seconds
#
# Revision: 2
# Processed by: cddbd v1.5.2PL0 Copyright (c) Steve Scherf et al.
# Submitted via: ExactAudioCopyFreeDBPlugin 1.0
#
DISCID=9c0f791b
DTITLE=Various Artist - 大瀧詠一のジュークボックス [ワーナーミュージック編]
DYEAR=2014
DGENRE=Oldies
TTITLE0=Joanie Sommers - Johnny Get Angry
TTITLE1=Joanie Sommers - (Theme From) A Summer Place
TTITLE2=Joanie Sommers - One Boy
TTITLE3=Shelley Fabares - The Things We Did Last Summer
TTITLE4=Shelley Fabares - Telephone (Won't You Ring)
TTITLE5=Little Peggy March - I Will Follow Him
TTITLE6=Little Peggy March - The Impossible Happened
TTITLE7=Johnny Tillotson - Poetry In Motion
TTITLE8=The Cascades - Rhythm Of The Rain
TTITLE9=The Cascades - Let Me Be
TTITLE10=The Cascades - The Last Leaf
TTITLE11=The Cascades - For Your Sweet Love
TTITLE12=The Four Seasons - Honey Love
TTITLE13=The Four Seasons - Melancholy
TTITLE14=The Ronettes - Be My Baby
TTITLE15=The Honeycombs - Please Don't Pretend Again
TTITLE16=The Honeycombs - Have I The Right
TTITLE17=The Honeycombs - Is It Because
TTITLE18=The Honeycombs - I'll Cry Tomorrow
TTITLE19=The Honeycombs - Nice While It Lasted
TTITLE20=The Honeycombs - Once You Know
TTITLE21=Herman's Hermits - I'm Into Something Good
TTITLE22=Herman's Hermits - Your Hand In Mine
TTITLE23=Herman's Hermits - Can't You Hear My Heart Beat
TTITLE24=Herman's Hermits - Silhouettes
TTITLE25=The Hollies - I Can't Let Go
TTITLE26=Gale Garnett - We'll Sing In The Sunshine
EXTD=
EXTT0=
EXTT1=
EXTT2=
EXTT3=
EXTT4=
EXTT5=
EXTT6=
EXTT7=
EXTT8=
EXTT9=
EXTT10=
EXTT11=
EXTT12=
EXTT13=
EXTT14=
EXTT15=
EXTT16=
EXTT17=
EXTT18=
EXTT19=
EXTT20=
EXTT21=
EXTT22=
EXTT23=
EXTT24=
EXTT25=
EXTT26=
PLAYORDER=
